<?xml version="1.0" encoding="iso-8859-1"?>
<svg xmlns="http://www.w3.org/2000/svg" xmlns:xlink="http://www.w3.org/1999/xlink" x="0px" y="0px" viewBox="0 0 512 512">
	<path d="M0 234.667h85.333v42.667H0zM426.667 234.667H512v42.667h-85.333zM234.667 426.667h42.667V512h-42.667zM234.667 0h42.667v85.333h-42.667zM89.1939182 452.1140202l-30.1691286-30.1691286 60.3389643-60.3389643 30.1691286 30.1691286zM422.7792208 59.924648l30.1691286 30.1691286-60.3382572 60.3382572-30.1691286-30.1691286zM421.9987156 452.9848692l-60.3474976-60.330431 30.164862-30.1733952 60.3474976 60.330431zM120.242753 149.522073L59.8952554 89.191642l30.164862-30.1733952 60.3474976 60.330431zM256 128c-70.4 0-128 57.6-128 128s57.6 128 128 128 128-57.6 128-128-57.6-128-128-128zm0 217.6c-49.067 0-89.6-40.533-89.6-89.6s40.533-89.6 89.6-89.6 89.6 40.533 89.6 89.6-40.533 89.6-89.6 89.6z" fill="#fff" />
</svg>