<?xml version="1.0" encoding="iso-8859-1"?>
<svg xmlns="http://www.w3.org/2000/svg" xmlns:xlink="http://www.w3.org/1999/xlink" x="0px" y="0px" viewBox="0 0 512 512">
	<path d="M288 192h-64c-5.896 0-10.667 4.771-10.667 10.667v234.667c0 5.896 4.771 10.667 10.667 10.667h64c5.896 0 10.667-4.771 10.667-10.667V202.667c0-5.896-4.771-10.667-10.667-10.667zM394.667 128h-64c-5.896 0-10.667 4.771-10.667 10.667v298.667c0 5.896 4.771 10.667 10.667 10.667h64c5.896 0 10.667-4.771 10.667-10.667V138.667c-.001-5.896-4.771-10.667-10.667-10.667zM501.333 64h-64c-5.896 0-10.667 4.771-10.667 10.667v362.667c0 5.896 4.771 10.667 10.667 10.667h64c5.896 0 10.667-4.771 10.667-10.667V74.667C512 68.771 507.229 64 501.333 64zM181.333 256h-64c-5.896 0-10.667 4.771-10.667 10.667v170.667c0 5.896 4.771 10.667 10.667 10.667h64c5.896 0 10.667-4.771 10.667-10.667V266.667c0-5.896-4.771-10.667-10.667-10.667zM74.667 320h-64C4.771 320 0 324.771 0 330.667v106.667C0 443.229 4.771 448 10.667 448h64c5.896 0 10.667-4.771 10.667-10.667V330.667C85.333 324.771 80.563 320 74.667 320z" fill="#fff" />
</svg>